<svg xmlns="http://www.w3.org/2000/svg" xmlns:xlink="http://www.w3.org/1999/xlink" width="500" zoomAndPan="magnify" viewBox="0 0 375 374.999991" height="500" preserveAspectRatio="xMidYMid meet" version="1.0"><defs><g/></defs><rect x="-37.5" width="450" fill="#ffffff" y="-37.499999" height="449.999989" fill-opacity="1"/><rect x="-37.5" width="450" fill="#007229" y="-37.499999" height="449.999989" fill-opacity="1"/><g fill="#ffffff" fill-opacity="1"><g transform="translate(50.746655, 210.671909)"><g><path d="M 31.140625 0.4375 C 26.003906 0.4375 21.347656 -0.707031 17.171875 -3 C 12.992188 -5.300781 9.726562 -8.453125 7.375 -12.453125 C 5.03125 -16.460938 3.859375 -20.960938 3.859375 -25.953125 C 3.859375 -30.941406 5.03125 -35.4375 7.375 -39.4375 C 9.726562 -43.445312 12.992188 -46.601562 17.171875 -48.90625 C 21.347656 -51.207031 26.003906 -52.359375 31.140625 -52.359375 C 36.285156 -52.359375 40.921875 -51.21875 45.046875 -48.9375 C 49.171875 -46.664062 52.421875 -43.515625 54.796875 -39.484375 C 57.171875 -35.453125 58.359375 -30.941406 58.359375 -25.953125 C 58.359375 -20.960938 57.171875 -16.453125 54.796875 -12.421875 C 52.421875 -8.390625 49.171875 -5.238281 45.046875 -2.96875 C 40.921875 -0.695312 36.285156 0.4375 31.140625 0.4375 Z M 31.140625 -4.453125 C 35.242188 -4.453125 38.953125 -5.378906 42.265625 -7.234375 C 45.578125 -9.085938 48.171875 -11.65625 50.046875 -14.9375 C 51.929688 -18.226562 52.875 -21.898438 52.875 -25.953125 C 52.875 -30.003906 51.929688 -33.671875 50.046875 -36.953125 C 48.171875 -40.242188 45.578125 -42.816406 42.265625 -44.671875 C 38.953125 -46.523438 35.242188 -47.453125 31.140625 -47.453125 C 27.035156 -47.453125 23.316406 -46.523438 19.984375 -44.671875 C 16.648438 -42.816406 14.03125 -40.242188 12.125 -36.953125 C 10.21875 -33.671875 9.265625 -30.003906 9.265625 -25.953125 C 9.265625 -21.898438 10.21875 -18.226562 12.125 -14.9375 C 14.03125 -11.65625 16.648438 -9.085938 19.984375 -7.234375 C 23.316406 -5.378906 27.035156 -4.453125 31.140625 -4.453125 Z M 31.140625 -4.453125 "/></g></g></g><g fill="#ffffff" fill-opacity="1"><g transform="translate(124.081478, 210.671909)"><g><path d="M 41.015625 -13.875 L 12.09375 -13.875 L 5.859375 0 L 0.140625 0 L 23.875 -51.90625 L 29.296875 -51.90625 L 53.015625 0 L 47.234375 0 Z M 39 -18.3125 L 26.546875 -46.203125 L 14.09375 -18.3125 Z M 39 -18.3125 "/></g></g></g><g fill="#ffffff" fill-opacity="1"><g transform="translate(188.369942, 210.671909)"><g><path d="M 22.765625 0.4375 C 18.910156 0.4375 15.210938 -0.175781 11.671875 -1.40625 C 8.140625 -2.644531 5.410156 -4.273438 3.484375 -6.296875 L 5.640625 -10.53125 C 7.515625 -8.65625 10.007812 -7.132812 13.125 -5.96875 C 16.238281 -4.8125 19.453125 -4.234375 22.765625 -4.234375 C 27.410156 -4.234375 30.894531 -5.082031 33.21875 -6.78125 C 35.539062 -8.488281 36.703125 -10.703125 36.703125 -13.421875 C 36.703125 -15.492188 36.070312 -17.148438 34.8125 -18.390625 C 33.550781 -19.628906 32.003906 -20.582031 30.171875 -21.25 C 28.347656 -21.914062 25.804688 -22.644531 22.546875 -23.4375 C 18.640625 -24.425781 15.523438 -25.375 13.203125 -26.28125 C 10.878906 -27.195312 8.890625 -28.59375 7.234375 -30.46875 C 5.578125 -32.351562 4.75 -34.898438 4.75 -38.109375 C 4.75 -40.734375 5.441406 -43.117188 6.828125 -45.265625 C 8.210938 -47.421875 10.335938 -49.140625 13.203125 -50.421875 C 16.066406 -51.710938 19.625 -52.359375 23.875 -52.359375 C 26.84375 -52.359375 29.75 -51.945312 32.59375 -51.125 C 35.4375 -50.3125 37.894531 -49.1875 39.96875 -47.75 L 38.109375 -43.375 C 35.941406 -44.8125 33.617188 -45.890625 31.140625 -46.609375 C 28.671875 -47.328125 26.25 -47.6875 23.875 -47.6875 C 19.332031 -47.6875 15.910156 -46.804688 13.609375 -45.046875 C 11.304688 -43.296875 10.15625 -41.035156 10.15625 -38.265625 C 10.15625 -36.191406 10.785156 -34.523438 12.046875 -33.265625 C 13.304688 -32.003906 14.890625 -31.035156 16.796875 -30.359375 C 18.703125 -29.691406 21.257812 -28.960938 24.46875 -28.171875 C 28.28125 -27.234375 31.359375 -26.304688 33.703125 -25.390625 C 36.046875 -24.484375 38.035156 -23.101562 39.671875 -21.25 C 41.304688 -19.394531 42.125 -16.882812 42.125 -13.71875 C 42.125 -11.09375 41.414062 -8.707031 40 -6.5625 C 38.59375 -4.414062 36.429688 -2.710938 33.515625 -1.453125 C 30.597656 -0.191406 27.015625 0.4375 22.765625 0.4375 Z M 22.765625 0.4375 "/></g></g></g><g fill="#ffffff" fill-opacity="1"><g transform="translate(245.095044, 210.671909)"><g><path d="M 8.453125 -51.90625 L 13.9375 -51.90625 L 13.9375 0 L 8.453125 0 Z M 8.453125 -51.90625 "/></g></g></g><g fill="#ffffff" fill-opacity="1"><g transform="translate(278.611051, 210.671909)"><g><path d="M 22.765625 0.4375 C 18.910156 0.4375 15.210938 -0.175781 11.671875 -1.40625 C 8.140625 -2.644531 5.410156 -4.273438 3.484375 -6.296875 L 5.640625 -10.53125 C 7.515625 -8.65625 10.007812 -7.132812 13.125 -5.96875 C 16.238281 -4.8125 19.453125 -4.234375 22.765625 -4.234375 C 27.410156 -4.234375 30.894531 -5.082031 33.21875 -6.78125 C 35.539062 -8.488281 36.703125 -10.703125 36.703125 -13.421875 C 36.703125 -15.492188 36.070312 -17.148438 34.8125 -18.390625 C 33.550781 -19.628906 32.003906 -20.582031 30.171875 -21.25 C 28.347656 -21.914062 25.804688 -22.644531 22.546875 -23.4375 C 18.640625 -24.425781 15.523438 -25.375 13.203125 -26.28125 C 10.878906 -27.195312 8.890625 -28.59375 7.234375 -30.46875 C 5.578125 -32.351562 4.75 -34.898438 4.75 -38.109375 C 4.75 -40.734375 5.441406 -43.117188 6.828125 -45.265625 C 8.210938 -47.421875 10.335938 -49.140625 13.203125 -50.421875 C 16.066406 -51.710938 19.625 -52.359375 23.875 -52.359375 C 26.84375 -52.359375 29.75 -51.945312 32.59375 -51.125 C 35.4375 -50.3125 37.894531 -49.1875 39.96875 -47.75 L 38.109375 -43.375 C 35.941406 -44.8125 33.617188 -45.890625 31.140625 -46.609375 C 28.671875 -47.328125 26.25 -47.6875 23.875 -47.6875 C 19.332031 -47.6875 15.910156 -46.804688 13.609375 -45.046875 C 11.304688 -43.296875 10.15625 -41.035156 10.15625 -38.265625 C 10.15625 -36.191406 10.785156 -34.523438 12.046875 -33.265625 C 13.304688 -32.003906 14.890625 -31.035156 16.796875 -30.359375 C 18.703125 -29.691406 21.257812 -28.960938 24.46875 -28.171875 C 28.28125 -27.234375 31.359375 -26.304688 33.703125 -25.390625 C 36.046875 -24.484375 38.035156 -23.101562 39.671875 -21.25 C 41.304688 -19.394531 42.125 -16.882812 42.125 -13.71875 C 42.125 -11.09375 41.414062 -8.707031 40 -6.5625 C 38.59375 -4.414062 36.429688 -2.710938 33.515625 -1.453125 C 30.597656 -0.191406 27.015625 0.4375 22.765625 0.4375 Z M 22.765625 0.4375 "/></g></g></g><g fill="#ffffff" fill-opacity="1"><g transform="translate(107.542605, 249.276338)"><g><path d="M 16.03125 -0.296875 C 16.082031 -0.296875 16.109375 -0.242188 16.109375 -0.140625 C 16.109375 -0.046875 16.082031 0 16.03125 0 L 13.25 0 C 13.101562 0 12.847656 0.00390625 12.484375 0.015625 C 12.128906 0.0234375 11.554688 -0.492188 10.765625 -1.546875 C 9.984375 -2.597656 9.46875 -3.285156 9.21875 -3.609375 L 5.515625 -8.296875 L 4.75 -7.5625 L 4.75 -2.015625 C 4.75 -1.503906 4.796875 -1.128906 4.890625 -0.890625 C 4.992188 -0.660156 5.1875 -0.503906 5.46875 -0.421875 C 5.75 -0.335938 6.195312 -0.296875 6.8125 -0.296875 C 6.863281 -0.296875 6.890625 -0.242188 6.890625 -0.140625 C 6.890625 -0.046875 6.863281 0 6.8125 0 C 6.28125 0 5.875 -0.0078125 5.59375 -0.03125 L 3.828125 -0.046875 L 2.109375 -0.03125 C 1.796875 -0.0078125 1.375 0 0.84375 0 C 0.8125 0 0.796875 -0.046875 0.796875 -0.140625 C 0.796875 -0.242188 0.8125 -0.296875 0.84375 -0.296875 C 1.457031 -0.296875 1.90625 -0.335938 2.1875 -0.421875 C 2.46875 -0.503906 2.660156 -0.664062 2.765625 -0.90625 C 2.878906 -1.144531 2.9375 -1.515625 2.9375 -2.015625 L 2.9375 -13.53125 C 2.9375 -14.019531 2.882812 -14.378906 2.78125 -14.609375 C 2.6875 -14.847656 2.5 -15.007812 2.21875 -15.09375 C 1.9375 -15.1875 1.488281 -15.234375 0.875 -15.234375 C 0.84375 -15.234375 0.828125 -15.28125 0.828125 -15.375 C 0.828125 -15.476562 0.84375 -15.53125 0.875 -15.53125 L 2.109375 -15.515625 C 2.835938 -15.484375 3.410156 -15.46875 3.828125 -15.46875 C 4.304688 -15.46875 4.894531 -15.484375 5.59375 -15.515625 L 6.8125 -15.53125 C 6.84375 -15.53125 6.859375 -15.476562 6.859375 -15.375 C 6.859375 -15.28125 6.84375 -15.234375 6.8125 -15.234375 C 6.21875 -15.234375 5.773438 -15.179688 5.484375 -15.078125 C 5.191406 -14.984375 4.992188 -14.816406 4.890625 -14.578125 C 4.796875 -14.335938 4.75 -13.96875 4.75 -13.46875 L 4.75 -8.203125 L 9.9375 -13.421875 C 10.46875 -13.984375 10.734375 -14.398438 10.734375 -14.671875 C 10.734375 -15.046875 10.242188 -15.234375 9.265625 -15.234375 C 9.234375 -15.234375 9.21875 -15.28125 9.21875 -15.375 C 9.21875 -15.476562 9.234375 -15.53125 9.265625 -15.53125 L 10.359375 -15.515625 C 11.023438 -15.484375 11.648438 -15.46875 12.234375 -15.46875 C 12.804688 -15.46875 13.394531 -15.484375 14 -15.515625 L 14.96875 -15.53125 C 15.019531 -15.53125 15.046875 -15.476562 15.046875 -15.375 C 15.046875 -15.28125 15.019531 -15.234375 14.96875 -15.234375 C 14.269531 -15.234375 13.519531 -15.070312 12.71875 -14.75 C 11.925781 -14.425781 11.203125 -13.9375 10.546875 -13.28125 L 6.8125 -9.578125 L 10.390625 -4.953125 C 11.585938 -3.390625 12.492188 -2.285156 13.109375 -1.640625 C 13.734375 -0.992188 14.21875 -0.609375 14.5625 -0.484375 C 14.914062 -0.359375 15.40625 -0.296875 16.03125 -0.296875 Z M 16.03125 -0.296875 "/></g></g></g><g fill="#ffffff" fill-opacity="1"><g transform="translate(126.210777, 249.276338)"><g><path d="M 18 -0.296875 C 18.050781 -0.296875 18.078125 -0.242188 18.078125 -0.140625 C 18.078125 -0.046875 18.050781 0 18 0 C 17.46875 0 17.050781 -0.0078125 16.75 -0.03125 L 14.984375 -0.046875 L 13.078125 -0.03125 C 12.796875 -0.0078125 12.40625 0 11.90625 0 C 11.851562 0 11.828125 -0.046875 11.828125 -0.140625 C 11.828125 -0.242188 11.851562 -0.296875 11.90625 -0.296875 C 12.550781 -0.296875 13.019531 -0.335938 13.3125 -0.421875 C 13.601562 -0.503906 13.800781 -0.664062 13.90625 -0.90625 C 14.019531 -1.144531 14.078125 -1.515625 14.078125 -2.015625 L 14.078125 -7.8125 L 4.796875 -7.8125 L 4.796875 -2.015625 C 4.796875 -1.515625 4.847656 -1.144531 4.953125 -0.90625 C 5.066406 -0.664062 5.265625 -0.503906 5.546875 -0.421875 C 5.835938 -0.335938 6.304688 -0.296875 6.953125 -0.296875 C 6.992188 -0.296875 7.015625 -0.242188 7.015625 -0.140625 C 7.015625 -0.046875 6.992188 0 6.953125 0 C 6.429688 0 6.019531 -0.0078125 5.71875 -0.03125 L 3.859375 -0.046875 L 2.109375 -0.03125 C 1.816406 -0.0078125 1.394531 0 0.84375 0 C 0.8125 0 0.796875 -0.046875 0.796875 -0.140625 C 0.796875 -0.242188 0.8125 -0.296875 0.84375 -0.296875 C 1.476562 -0.296875 1.9375 -0.335938 2.21875 -0.421875 C 2.507812 -0.503906 2.707031 -0.664062 2.8125 -0.90625 C 2.925781 -1.144531 2.984375 -1.515625 2.984375 -2.015625 L 2.984375 -13.53125 C 2.984375 -14.019531 2.925781 -14.378906 2.8125 -14.609375 C 2.707031 -14.847656 2.507812 -15.007812 2.21875 -15.09375 C 1.9375 -15.1875 1.488281 -15.234375 0.875 -15.234375 C 0.84375 -15.234375 0.828125 -15.28125 0.828125 -15.375 C 0.828125 -15.476562 0.84375 -15.53125 0.875 -15.53125 L 2.140625 -15.515625 C 2.835938 -15.484375 3.410156 -15.46875 3.859375 -15.46875 C 4.347656 -15.46875 4.976562 -15.484375 5.75 -15.515625 L 6.953125 -15.53125 C 6.992188 -15.53125 7.015625 -15.476562 7.015625 -15.375 C 7.015625 -15.28125 6.992188 -15.234375 6.953125 -15.234375 C 6.328125 -15.234375 5.863281 -15.179688 5.5625 -15.078125 C 5.269531 -14.984375 5.066406 -14.816406 4.953125 -14.578125 C 4.847656 -14.335938 4.796875 -13.96875 4.796875 -13.46875 L 4.796875 -8.359375 L 14.078125 -8.359375 L 14.078125 -13.46875 C 14.078125 -13.96875 14.019531 -14.335938 13.90625 -14.578125 C 13.800781 -14.816406 13.597656 -14.984375 13.296875 -15.078125 C 13.003906 -15.179688 12.539062 -15.234375 11.90625 -15.234375 C 11.851562 -15.234375 11.828125 -15.28125 11.828125 -15.375 C 11.828125 -15.476562 11.851562 -15.53125 11.90625 -15.53125 L 13.078125 -15.515625 C 13.804688 -15.484375 14.441406 -15.46875 14.984375 -15.46875 C 15.429688 -15.46875 16.019531 -15.484375 16.75 -15.515625 L 18 -15.53125 C 18.050781 -15.53125 18.078125 -15.476562 18.078125 -15.375 C 18.078125 -15.28125 18.050781 -15.234375 18 -15.234375 C 17.363281 -15.234375 16.898438 -15.1875 16.609375 -15.09375 C 16.328125 -15.007812 16.128906 -14.847656 16.015625 -14.609375 C 15.910156 -14.378906 15.859375 -14.019531 15.859375 -13.53125 L 15.859375 -2.015625 C 15.859375 -1.515625 15.910156 -1.144531 16.015625 -0.90625 C 16.128906 -0.664062 16.328125 -0.503906 16.609375 -0.421875 C 16.898438 -0.335938 17.363281 -0.296875 18 -0.296875 Z M 18 -0.296875 "/></g></g></g><g fill="#ffffff" fill-opacity="1"><g transform="translate(147.588446, 249.276338)"><g><path d="M 17.453125 -0.296875 C 17.515625 -0.296875 17.546875 -0.242188 17.546875 -0.140625 C 17.546875 -0.046875 17.515625 0 17.453125 0 C 17.140625 0 16.648438 -0.015625 15.984375 -0.046875 C 15.316406 -0.078125 14.828125 -0.09375 14.515625 -0.09375 C 14.140625 -0.09375 13.664062 -0.078125 13.09375 -0.046875 C 12.570312 -0.015625 12.160156 0 11.859375 0 C 11.796875 0 11.765625 -0.046875 11.765625 -0.140625 C 11.765625 -0.242188 11.796875 -0.296875 11.859375 -0.296875 C 12.453125 -0.296875 12.878906 -0.347656 13.140625 -0.453125 C 13.398438 -0.566406 13.53125 -0.765625 13.53125 -1.046875 C 13.53125 -1.296875 13.410156 -1.664062 13.171875 -2.15625 L 11.03125 -6.640625 L 5.09375 -6.640625 L 3.625 -3.234375 C 3.414062 -2.734375 3.3125 -2.273438 3.3125 -1.859375 C 3.3125 -0.816406 4.113281 -0.296875 5.71875 -0.296875 C 5.800781 -0.296875 5.84375 -0.242188 5.84375 -0.140625 C 5.84375 -0.046875 5.800781 0 5.71875 0 C 5.414062 0 4.984375 -0.015625 4.421875 -0.046875 C 3.796875 -0.078125 3.25 -0.09375 2.78125 -0.09375 C 2.363281 -0.09375 1.859375 -0.078125 1.265625 -0.046875 C 0.765625 -0.015625 0.34375 0 0 0 C -0.0820312 0 -0.125 -0.046875 -0.125 -0.140625 C -0.125 -0.242188 -0.0820312 -0.296875 0 -0.296875 C 0.46875 -0.296875 0.863281 -0.382812 1.1875 -0.5625 C 1.507812 -0.738281 1.816406 -1.046875 2.109375 -1.484375 C 2.410156 -1.929688 2.742188 -2.585938 3.109375 -3.453125 L 8.359375 -15.734375 C 8.390625 -15.785156 8.453125 -15.8125 8.546875 -15.8125 C 8.648438 -15.8125 8.707031 -15.785156 8.71875 -15.734375 L 14.640625 -3.40625 C 15.203125 -2.195312 15.679688 -1.375 16.078125 -0.9375 C 16.484375 -0.507812 16.941406 -0.296875 17.453125 -0.296875 Z M 5.3125 -7.15625 L 10.78125 -7.15625 L 7.90625 -13.171875 Z M 5.3125 -7.15625 "/></g></g></g><g fill="#ffffff" fill-opacity="1"><g transform="translate(167.574091, 249.276338)"><g><path d="M 17.078125 -0.296875 C 17.128906 -0.296875 17.15625 -0.242188 17.15625 -0.140625 C 17.15625 -0.046875 17.128906 0 17.078125 0 L 13.671875 0 C 13.273438 0 12.523438 -0.671875 11.421875 -2.015625 C 10.316406 -3.367188 8.972656 -5.257812 7.390625 -7.6875 C 6.941406 -7.601562 6.523438 -7.5625 6.140625 -7.5625 C 6.054688 -7.5625 5.664062 -7.582031 4.96875 -7.625 L 4.96875 -2.015625 C 4.96875 -1.503906 5.015625 -1.128906 5.109375 -0.890625 C 5.210938 -0.660156 5.40625 -0.503906 5.6875 -0.421875 C 5.96875 -0.335938 6.414062 -0.296875 7.03125 -0.296875 C 7.082031 -0.296875 7.109375 -0.242188 7.109375 -0.140625 C 7.109375 -0.046875 7.082031 0 7.03125 0 C 6.5 0 6.09375 -0.0078125 5.8125 -0.03125 L 4.046875 -0.046875 L 2.34375 -0.03125 C 2.019531 -0.0078125 1.59375 0 1.0625 0 C 1.03125 0 1.015625 -0.046875 1.015625 -0.140625 C 1.015625 -0.242188 1.03125 -0.296875 1.0625 -0.296875 C 1.675781 -0.296875 2.125 -0.335938 2.40625 -0.421875 C 2.6875 -0.503906 2.878906 -0.664062 2.984375 -0.90625 C 3.097656 -1.144531 3.15625 -1.515625 3.15625 -2.015625 L 3.15625 -13.53125 C 3.15625 -14.019531 3.101562 -14.378906 3 -14.609375 C 2.90625 -14.847656 2.71875 -15.007812 2.4375 -15.09375 C 2.15625 -15.1875 1.71875 -15.234375 1.125 -15.234375 C 1.070312 -15.234375 1.046875 -15.28125 1.046875 -15.375 C 1.046875 -15.476562 1.070312 -15.53125 1.125 -15.53125 L 2.34375 -15.515625 C 3.03125 -15.484375 3.597656 -15.46875 4.046875 -15.46875 C 4.398438 -15.46875 4.734375 -15.472656 5.046875 -15.484375 C 5.359375 -15.503906 5.628906 -15.519531 5.859375 -15.53125 C 6.472656 -15.582031 7.046875 -15.609375 7.578125 -15.609375 C 8.910156 -15.609375 9.941406 -15.3125 10.671875 -14.71875 C 11.410156 -14.132812 11.78125 -13.347656 11.78125 -12.359375 C 11.78125 -11.460938 11.519531 -10.648438 11 -9.921875 C 10.476562 -9.191406 9.785156 -8.617188 8.921875 -8.203125 C 10.316406 -6.203125 11.484375 -4.632812 12.421875 -3.5 C 13.359375 -2.375 14.191406 -1.554688 14.921875 -1.046875 C 15.660156 -0.546875 16.378906 -0.296875 17.078125 -0.296875 Z M 4.96875 -8.234375 C 5.4375 -8.179688 5.925781 -8.15625 6.4375 -8.15625 C 7.675781 -8.15625 8.5625 -8.429688 9.09375 -8.984375 C 9.625 -9.535156 9.890625 -10.398438 9.890625 -11.578125 C 9.890625 -12.890625 9.613281 -13.820312 9.0625 -14.375 C 8.519531 -14.9375 7.738281 -15.21875 6.71875 -15.21875 C 6.070312 -15.21875 5.617188 -15.097656 5.359375 -14.859375 C 5.097656 -14.617188 4.96875 -14.15625 4.96875 -13.46875 Z M 4.96875 -8.234375 "/></g></g></g><g fill="#ffffff" fill-opacity="1"><g transform="translate(186.913429, 249.276338)"><g><path d="M 4.828125 -15.0625 C 3.796875 -15.0625 3 -14.785156 2.4375 -14.234375 C 1.882812 -13.679688 1.488281 -12.773438 1.25 -11.515625 C 1.226562 -11.460938 1.171875 -11.4375 1.078125 -11.4375 C 0.984375 -11.445312 0.9375 -11.472656 0.9375 -11.515625 C 1.007812 -11.972656 1.085938 -12.710938 1.171875 -13.734375 C 1.253906 -14.765625 1.296875 -15.546875 1.296875 -16.078125 C 1.296875 -16.160156 1.34375 -16.203125 1.4375 -16.203125 C 1.539062 -16.203125 1.59375 -16.160156 1.59375 -16.078125 C 1.59375 -15.710938 2.039062 -15.53125 2.9375 -15.53125 C 4.363281 -15.488281 6.03125 -15.46875 7.9375 -15.46875 C 8.90625 -15.46875 9.9375 -15.484375 11.03125 -15.515625 L 12.734375 -15.53125 C 13.328125 -15.53125 13.769531 -15.570312 14.0625 -15.65625 C 14.351562 -15.738281 14.539062 -15.90625 14.625 -16.15625 C 14.632812 -16.226562 14.679688 -16.265625 14.765625 -16.265625 C 14.847656 -16.265625 14.890625 -16.226562 14.890625 -16.15625 C 14.835938 -15.675781 14.785156 -14.9375 14.734375 -13.9375 C 14.691406 -12.9375 14.671875 -12.128906 14.671875 -11.515625 C 14.671875 -11.472656 14.625 -11.453125 14.53125 -11.453125 C 14.4375 -11.453125 14.382812 -11.472656 14.375 -11.515625 C 14.300781 -12.785156 14.003906 -13.691406 13.484375 -14.234375 C 12.960938 -14.785156 12.15625 -15.0625 11.0625 -15.0625 C 10.394531 -15.0625 9.914062 -15.023438 9.625 -14.953125 C 9.34375 -14.890625 9.144531 -14.75 9.03125 -14.53125 C 8.925781 -14.320312 8.875 -13.96875 8.875 -13.46875 L 8.875 -2.015625 C 8.875 -1.503906 8.925781 -1.128906 9.03125 -0.890625 C 9.144531 -0.660156 9.363281 -0.503906 9.6875 -0.421875 C 10.007812 -0.335938 10.523438 -0.296875 11.234375 -0.296875 C 11.265625 -0.296875 11.28125 -0.242188 11.28125 -0.140625 C 11.28125 -0.046875 11.265625 0 11.234375 0 C 10.671875 0 10.222656 -0.0078125 9.890625 -0.03125 L 7.9375 -0.046875 L 6.046875 -0.03125 C 5.710938 -0.0078125 5.25 0 4.65625 0 C 4.613281 0 4.59375 -0.046875 4.59375 -0.140625 C 4.59375 -0.242188 4.613281 -0.296875 4.65625 -0.296875 C 5.34375 -0.296875 5.851562 -0.335938 6.1875 -0.421875 C 6.519531 -0.503906 6.742188 -0.664062 6.859375 -0.90625 C 6.972656 -1.144531 7.03125 -1.515625 7.03125 -2.015625 L 7.03125 -13.53125 C 7.03125 -14.007812 6.976562 -14.347656 6.875 -14.546875 C 6.769531 -14.753906 6.570312 -14.890625 6.28125 -14.953125 C 5.988281 -15.023438 5.503906 -15.0625 4.828125 -15.0625 Z M 4.828125 -15.0625 "/></g></g></g><g fill="#ffffff" fill-opacity="1"><g transform="translate(205.208748, 249.276338)"><g><path d="M 9.09375 0.296875 C 7.550781 0.296875 6.179688 -0.0625 4.984375 -0.78125 C 3.785156 -1.5 2.859375 -2.472656 2.203125 -3.703125 C 1.546875 -4.941406 1.21875 -6.289062 1.21875 -7.75 C 1.21875 -9.457031 1.644531 -10.921875 2.5 -12.140625 C 3.363281 -13.359375 4.472656 -14.273438 5.828125 -14.890625 C 7.179688 -15.503906 8.5625 -15.8125 9.96875 -15.8125 C 11.539062 -15.8125 12.921875 -15.441406 14.109375 -14.703125 C 15.304688 -13.960938 16.222656 -12.988281 16.859375 -11.78125 C 17.503906 -10.570312 17.828125 -9.289062 17.828125 -7.9375 C 17.828125 -6.425781 17.425781 -5.039062 16.625 -3.78125 C 15.832031 -2.519531 14.769531 -1.523438 13.4375 -0.796875 C 12.101562 -0.0664062 10.65625 0.296875 9.09375 0.296875 Z M 9.96875 -0.25 C 11.0625 -0.25 12.039062 -0.519531 12.90625 -1.0625 C 13.78125 -1.613281 14.46875 -2.414062 14.96875 -3.46875 C 15.476562 -4.519531 15.734375 -5.773438 15.734375 -7.234375 C 15.734375 -8.773438 15.457031 -10.148438 14.90625 -11.359375 C 14.351562 -12.566406 13.5625 -13.507812 12.53125 -14.1875 C 11.5 -14.875 10.304688 -15.21875 8.953125 -15.21875 C 7.179688 -15.21875 5.796875 -14.628906 4.796875 -13.453125 C 3.804688 -12.285156 3.3125 -10.675781 3.3125 -8.625 C 3.3125 -7.070312 3.59375 -5.65625 4.15625 -4.375 C 4.71875 -3.101562 5.503906 -2.097656 6.515625 -1.359375 C 7.523438 -0.617188 8.675781 -0.25 9.96875 -0.25 Z M 9.96875 -0.25 "/></g></g></g><g fill="#ffffff" fill-opacity="1"><g transform="translate(226.735572, 249.276338)"><g><path d="M 14.21875 -12.734375 C 14.21875 -13.554688 14.03125 -14.175781 13.65625 -14.59375 C 13.28125 -15.019531 12.738281 -15.234375 12.03125 -15.234375 C 11.976562 -15.234375 11.953125 -15.28125 11.953125 -15.375 C 11.953125 -15.476562 11.976562 -15.53125 12.03125 -15.53125 L 13.125 -15.515625 C 13.6875 -15.484375 14.160156 -15.46875 14.546875 -15.46875 C 14.859375 -15.46875 15.28125 -15.484375 15.8125 -15.515625 L 16.859375 -15.53125 C 16.890625 -15.53125 16.90625 -15.476562 16.90625 -15.375 C 16.90625 -15.28125 16.890625 -15.234375 16.859375 -15.234375 C 16.191406 -15.234375 15.691406 -15.019531 15.359375 -14.59375 C 15.023438 -14.175781 14.859375 -13.554688 14.859375 -12.734375 L 14.859375 -5.6875 C 14.859375 -3.820312 14.320312 -2.351562 13.25 -1.28125 C 12.175781 -0.207031 10.734375 0.328125 8.921875 0.328125 C 7.691406 0.328125 6.617188 0.0859375 5.703125 -0.390625 C 4.785156 -0.878906 4.066406 -1.566406 3.546875 -2.453125 C 3.035156 -3.335938 2.78125 -4.375 2.78125 -5.5625 L 2.78125 -13.53125 C 2.78125 -14.019531 2.726562 -14.378906 2.625 -14.609375 C 2.53125 -14.847656 2.34375 -15.007812 2.0625 -15.09375 C 1.78125 -15.1875 1.332031 -15.234375 0.71875 -15.234375 C 0.6875 -15.234375 0.671875 -15.28125 0.671875 -15.375 C 0.671875 -15.476562 0.6875 -15.53125 0.71875 -15.53125 L 1.96875 -15.515625 C 2.695312 -15.484375 3.265625 -15.46875 3.671875 -15.46875 C 4.140625 -15.46875 4.738281 -15.484375 5.46875 -15.515625 L 6.640625 -15.53125 C 6.691406 -15.53125 6.71875 -15.476562 6.71875 -15.375 C 6.71875 -15.28125 6.691406 -15.234375 6.640625 -15.234375 C 6.046875 -15.234375 5.601562 -15.179688 5.3125 -15.078125 C 5.03125 -14.984375 4.835938 -14.816406 4.734375 -14.578125 C 4.640625 -14.335938 4.59375 -13.96875 4.59375 -13.46875 L 4.59375 -6.4375 C 4.59375 -4.476562 5.023438 -2.988281 5.890625 -1.96875 C 6.753906 -0.957031 7.972656 -0.453125 9.546875 -0.453125 C 11.023438 -0.453125 12.171875 -0.910156 12.984375 -1.828125 C 13.804688 -2.742188 14.21875 -4.023438 14.21875 -5.671875 Z M 14.21875 -12.734375 "/></g></g></g><g fill="#ffffff" fill-opacity="1"><g transform="translate(246.59692, 249.276338)"><g><path d="M 20.28125 -0.296875 C 20.332031 -0.296875 20.359375 -0.242188 20.359375 -0.140625 C 20.359375 -0.046875 20.332031 0 20.28125 0 C 19.75 0 19.328125 -0.0078125 19.015625 -0.03125 L 17.296875 -0.046875 L 15.640625 -0.03125 C 15.367188 -0.0078125 14.992188 0 14.515625 0 C 14.484375 0 14.46875 -0.046875 14.46875 -0.140625 C 14.46875 -0.242188 14.484375 -0.296875 14.515625 -0.296875 C 15.078125 -0.296875 15.488281 -0.34375 15.75 -0.4375 C 16.019531 -0.53125 16.203125 -0.691406 16.296875 -0.921875 C 16.390625 -1.148438 16.414062 -1.515625 16.375 -2.015625 L 15.90625 -13.078125 L 10.34375 -0.171875 C 10.3125 -0.109375 10.242188 -0.078125 10.140625 -0.078125 C 10.054688 -0.078125 9.984375 -0.109375 9.921875 -0.171875 L 3.78125 -13.03125 L 3.578125 -2.78125 C 3.566406 -1.90625 3.722656 -1.269531 4.046875 -0.875 C 4.367188 -0.488281 4.910156 -0.296875 5.671875 -0.296875 C 5.703125 -0.296875 5.71875 -0.242188 5.71875 -0.140625 C 5.71875 -0.046875 5.703125 0 5.671875 0 C 5.203125 0 4.84375 -0.0078125 4.59375 -0.03125 L 3.25 -0.046875 L 1.921875 -0.03125 C 1.679688 -0.0078125 1.347656 0 0.921875 0 C 0.867188 0 0.84375 -0.046875 0.84375 -0.140625 C 0.84375 -0.242188 0.867188 -0.296875 0.921875 -0.296875 C 1.597656 -0.296875 2.101562 -0.492188 2.4375 -0.890625 C 2.769531 -1.285156 2.941406 -1.914062 2.953125 -2.78125 L 3.1875 -14.09375 C 2.6875 -14.851562 1.988281 -15.234375 1.09375 -15.234375 C 1.039062 -15.234375 1.015625 -15.28125 1.015625 -15.375 C 1.015625 -15.476562 1.039062 -15.53125 1.09375 -15.53125 L 2.0625 -15.515625 C 2.25 -15.492188 2.488281 -15.484375 2.78125 -15.484375 C 3.113281 -15.484375 3.390625 -15.488281 3.609375 -15.5 C 3.835938 -15.519531 4.019531 -15.53125 4.15625 -15.53125 C 4.363281 -15.53125 4.535156 -15.457031 4.671875 -15.3125 C 4.804688 -15.164062 5.015625 -14.8125 5.296875 -14.25 L 10.84375 -2.8125 L 16.109375 -14.921875 C 16.285156 -15.328125 16.535156 -15.53125 16.859375 -15.53125 C 16.941406 -15.53125 17.0625 -15.519531 17.21875 -15.5 C 17.382812 -15.488281 17.601562 -15.484375 17.875 -15.484375 L 19.109375 -15.515625 C 19.296875 -15.523438 19.582031 -15.53125 19.96875 -15.53125 C 20 -15.53125 20.015625 -15.476562 20.015625 -15.375 C 20.015625 -15.28125 20 -15.234375 19.96875 -15.234375 C 19.132812 -15.234375 18.539062 -15.101562 18.1875 -14.84375 C 17.832031 -14.59375 17.660156 -14.132812 17.671875 -13.46875 L 18.203125 -2.015625 C 18.234375 -1.503906 18.296875 -1.128906 18.390625 -0.890625 C 18.492188 -0.660156 18.679688 -0.503906 18.953125 -0.421875 C 19.222656 -0.335938 19.664062 -0.296875 20.28125 -0.296875 Z M 20.28125 -0.296875 "/></g></g></g></svg>